<svg xmlns="http://www.w3.org/2000/svg" xmlns:xlink="http://www.w3.org/1999/xlink" width="180" zoomAndPan="magnify" viewBox="0 0 375 374.999991" height="500" preserveAspectRatio="xMidYMid meet" version="1.0"><defs><g/></defs><g fill="currentColor" fill-opacity="1"><g transform="translate(103.618202, 199.914142)"><g><path d="M 8.015625 0 L 8.015625 -2.046875 C 10.429688 -2.773438 12.082031 -4.34375 12.96875 -6.75 C 13.863281 -9.164062 14.3125 -13.570312 14.3125 -19.96875 L 14.3125 -90.109375 C 14.3125 -96.609375 13.863281 -101.035156 12.96875 -103.390625 C 12.082031 -105.753906 10.429688 -107.304688 8.015625 -108.046875 L 8.015625 -110.09375 L 45.609375 -110.09375 C 56.410156 -110.09375 65.632812 -108.546875 73.28125 -105.453125 C 80.9375 -102.359375 87.175781 -98.238281 92 -93.09375 C 96.820312 -87.957031 100.359375 -82.269531 102.609375 -76.03125 C 104.867188 -69.800781 106 -63.488281 106 -57.09375 C 106.101562 -46.082031 103.820312 -36.273438 99.15625 -27.671875 C 94.488281 -19.078125 87.878906 -12.316406 79.328125 -7.390625 C 70.785156 -2.460938 60.75 0 49.21875 0 Z M 27.203125 -13.84375 C 27.203125 -10.164062 27.832031 -7.332031 29.09375 -5.34375 C 30.351562 -3.351562 33.128906 -2.359375 37.421875 -2.359375 L 48.90625 -2.359375 C 62.644531 -2.359375 73.207031 -6.316406 80.59375 -14.234375 C 87.988281 -22.148438 91.6875 -34.335938 91.6875 -50.796875 C 91.6875 -61.273438 89.640625 -70.8125 85.546875 -79.40625 C 81.460938 -88.007812 75.4375 -94.878906 67.46875 -100.015625 C 59.5 -105.160156 49.644531 -107.734375 37.90625 -107.734375 L 27.203125 -107.734375 Z M 27.203125 -13.84375 "/></g></g></g><g fill="currentColor" fill-opacity="1"><g transform="translate(164.342212, 247.732381)"><g><path d="M 11.171875 -91.53125 C 8.859375 -97.507812 6.734375 -101.570312 4.796875 -103.71875 C 2.859375 -105.875 1.050781 -107.316406 -0.625 -108.046875 L -0.625 -110.09375 L 23.90625 -110.09375 L 23.90625 -108.046875 C 21.601562 -107.316406 20.632812 -105.875 21 -103.71875 C 21.363281 -101.570312 22.695312 -97.507812 25 -91.53125 L 55.359375 -13.6875 L 85.25 -91.375 C 87.238281 -96.625 88.078125 -100.582031 87.765625 -103.25 C 87.453125 -105.925781 85.929688 -107.523438 83.203125 -108.046875 L 83.203125 -110.09375 L 100.8125 -110.09375 L 100.8125 -108.046875 C 98.71875 -107.316406 96.644531 -105.875 94.59375 -103.71875 C 92.550781 -101.570312 90.378906 -97.507812 88.078125 -91.53125 L 52.375 0.78125 L 47.96875 0.78125 Z M 11.171875 -91.53125 "/></g></g></g><g fill="currentColor" fill-opacity="1"><g transform="translate(135.264297, 274.705763)"><g><path d="M 1.109375 0 L 1.109375 -0.328125 C 1.492188 -0.453125 1.742188 -0.710938 1.859375 -1.109375 C 1.984375 -1.515625 2.046875 -2.140625 2.046875 -2.984375 L 2.046875 -13.453125 C 2.046875 -14.296875 1.984375 -14.914062 1.859375 -15.3125 C 1.742188 -15.71875 1.492188 -15.984375 1.109375 -16.109375 L 1.109375 -16.4375 L 6.96875 -16.4375 C 8.664062 -16.4375 10.085938 -16.191406 11.234375 -15.703125 C 12.390625 -15.222656 13.3125 -14.585938 14 -13.796875 C 14.6875 -13.003906 15.1875 -12.144531 15.5 -11.21875 C 15.8125 -10.300781 15.96875 -9.410156 15.96875 -8.546875 C 15.988281 -6.859375 15.648438 -5.367188 14.953125 -4.078125 C 14.253906 -2.796875 13.265625 -1.796875 11.984375 -1.078125 C 10.710938 -0.359375 9.210938 0 7.484375 0 Z M 4.53125 -2.09375 C 4.53125 -1.539062 4.625 -1.113281 4.8125 -0.8125 C 5 -0.519531 5.414062 -0.375 6.0625 -0.375 L 7.328125 -0.375 C 9.222656 -0.375 10.675781 -0.914062 11.6875 -2 C 12.695312 -3.09375 13.203125 -4.890625 13.203125 -7.390625 C 13.203125 -9.003906 12.914062 -10.460938 12.34375 -11.765625 C 11.78125 -13.078125 10.929688 -14.117188 9.796875 -14.890625 C 8.671875 -15.671875 7.226562 -16.0625 5.46875 -16.0625 L 4.53125 -16.0625 Z M 4.53125 -2.09375 "/></g></g></g><g fill="currentColor" fill-opacity="1"><g transform="translate(158.139648, 274.705763)"><g><path d="M -0.5 0 L -0.5 -0.328125 C -0.132812 -0.453125 0.207031 -0.691406 0.53125 -1.046875 C 0.851562 -1.410156 1.171875 -1.984375 1.484375 -2.765625 L 5.875 -13.671875 C 6.039062 -14.109375 6.023438 -14.53125 5.828125 -14.9375 L 5.515625 -15.59375 L 7.828125 -16.625 L 13.640625 -2.75 C 13.972656 -1.976562 14.289062 -1.410156 14.59375 -1.046875 C 14.894531 -0.691406 15.179688 -0.453125 15.453125 -0.328125 L 15.453125 0 L 11.171875 0 L 11.171875 -0.328125 C 11.566406 -0.453125 11.710938 -0.691406 11.609375 -1.046875 C 11.503906 -1.410156 11.289062 -1.976562 10.96875 -2.75 L 9.5625 -6.125 L 3.28125 -6.125 L 1.921875 -2.765625 C 1.609375 -1.984375 1.484375 -1.40625 1.546875 -1.03125 C 1.609375 -0.65625 1.835938 -0.421875 2.234375 -0.328125 L 2.234375 0 Z M 3.421875 -6.5 L 9.390625 -6.5 L 6.359375 -13.765625 Z M 3.421875 -6.5 "/></g></g></g><g fill="currentColor" fill-opacity="1"><g transform="translate(178.948369, 274.705763)"><g><path d="M 1.671875 -13.671875 C 1.367188 -14.453125 1.066406 -15.019531 0.765625 -15.375 C 0.460938 -15.738281 0.175781 -15.984375 -0.09375 -16.109375 L -0.09375 -16.4375 L 4.234375 -16.4375 L 4.234375 -16.109375 C 3.835938 -15.984375 3.6875 -15.738281 3.78125 -15.375 C 3.875 -15.019531 4.070312 -14.453125 4.375 -13.671875 L 8.6875 -2.703125 L 12.9375 -13.671875 C 13.25 -14.453125 13.367188 -15.03125 13.296875 -15.40625 C 13.234375 -15.78125 13 -16.015625 12.59375 -16.109375 L 12.59375 -16.4375 L 15.3125 -16.4375 L 15.3125 -16.109375 C 14.96875 -15.984375 14.640625 -15.738281 14.328125 -15.375 C 14.015625 -15.019531 13.703125 -14.453125 13.390625 -13.671875 L 8.078125 0 L 7.1875 0 Z M 1.671875 -13.671875 "/></g></g></g><g fill="currentColor" fill-opacity="1"><g transform="translate(199.874516, 274.705763)"><g><path d="M 1.109375 0 L 1.109375 -0.328125 C 1.492188 -0.453125 1.742188 -0.710938 1.859375 -1.109375 C 1.984375 -1.515625 2.046875 -2.140625 2.046875 -2.984375 L 2.046875 -13.453125 C 2.046875 -14.296875 1.984375 -14.914062 1.859375 -15.3125 C 1.742188 -15.71875 1.492188 -15.984375 1.109375 -16.109375 L 1.109375 -16.4375 L 5.46875 -16.4375 L 5.46875 -16.109375 C 5.082031 -15.984375 4.828125 -15.71875 4.703125 -15.3125 C 4.585938 -14.914062 4.53125 -14.296875 4.53125 -13.453125 L 4.53125 -2.984375 C 4.53125 -2.140625 4.585938 -1.515625 4.703125 -1.109375 C 4.828125 -0.710938 5.082031 -0.453125 5.46875 -0.328125 L 5.46875 0 Z M 1.109375 0 "/></g></g></g><g fill="currentColor" fill-opacity="1"><g transform="translate(212.15842, 274.705763)"><g><path d="M 1.109375 0 L 1.109375 -0.328125 C 1.492188 -0.453125 1.742188 -0.710938 1.859375 -1.109375 C 1.984375 -1.515625 2.046875 -2.140625 2.046875 -2.984375 L 2.046875 -13.453125 C 2.046875 -14.296875 1.984375 -14.914062 1.859375 -15.3125 C 1.742188 -15.71875 1.492188 -15.984375 1.109375 -16.109375 L 1.109375 -16.4375 L 6.96875 -16.4375 C 8.664062 -16.4375 10.085938 -16.191406 11.234375 -15.703125 C 12.390625 -15.222656 13.3125 -14.585938 14 -13.796875 C 14.6875 -13.003906 15.1875 -12.144531 15.5 -11.21875 C 15.8125 -10.300781 15.96875 -9.410156 15.96875 -8.546875 C 15.988281 -6.859375 15.648438 -5.367188 14.953125 -4.078125 C 14.253906 -2.796875 13.265625 -1.796875 11.984375 -1.078125 C 10.710938 -0.359375 9.210938 0 7.484375 0 Z M 4.53125 -2.09375 C 4.53125 -1.539062 4.625 -1.113281 4.8125 -0.8125 C 5 -0.519531 5.414062 -0.375 6.0625 -0.375 L 7.328125 -0.375 C 9.222656 -0.375 10.675781 -0.914062 11.6875 -2 C 12.695312 -3.09375 13.203125 -4.890625 13.203125 -7.390625 C 13.203125 -9.003906 12.914062 -10.460938 12.34375 -11.765625 C 11.78125 -13.078125 10.929688 -14.117188 9.796875 -14.890625 C 8.671875 -15.671875 7.226562 -16.0625 5.46875 -16.0625 L 4.53125 -16.0625 Z M 4.53125 -2.09375 "/></g></g></g><g fill="currentColor" fill-opacity="1"><g transform="translate(235.037731, 274.705763)"><g/></g></g><g fill="currentColor" fill-opacity="1"><g transform="translate(129.575226, 291.706651)"><g><path d="M 0.203125 -7.046875 L 1.03125 -7.046875 L 3.453125 -0.84375 L 5.90625 -7.046875 L 6.703125 -7.046875 L 3.875 0 L 3.046875 0 Z M 0.203125 -7.046875 "/></g></g></g><g fill="currentColor" fill-opacity="1"><g transform="translate(139.790274, 291.706651)"><g><path d="M 1.71875 0 L 0.984375 0 L 0.984375 -7.046875 L 1.71875 -7.046875 Z M 1.71875 0 "/></g></g></g><g fill="currentColor" fill-opacity="1"><g transform="translate(145.793289, 291.706651)"><g><path d="M 1.71875 -0.6875 L 5.0625 -0.6875 L 5.0625 0 L 0.984375 0 L 0.984375 -7.046875 L 1.71875 -7.046875 Z M 1.71875 -0.6875 "/></g></g></g><g fill="currentColor" fill-opacity="1"><g transform="translate(154.343324, 291.706651)"><g><path d="M 1.71875 -0.6875 L 5.0625 -0.6875 L 5.0625 0 L 0.984375 0 L 0.984375 -7.046875 L 1.71875 -7.046875 Z M 1.71875 -0.6875 "/></g></g></g><g fill="currentColor" fill-opacity="1"><g transform="translate(162.893359, 291.706651)"><g><path d="M 0.78125 0 L 0.03125 0 L 3.0625 -7.046875 L 3.90625 -7.046875 L 6.953125 0 L 6.171875 0 L 5.40625 -1.796875 L 1.5625 -1.796875 Z M 5.109375 -2.46875 L 3.46875 -6.28125 L 1.84375 -2.46875 Z M 5.109375 -2.46875 "/></g></g></g><g fill="currentColor" fill-opacity="1"><g transform="translate(173.171406, 291.706651)"><g><path d="M 0.203125 -7.046875 L 1.03125 -7.046875 L 3.453125 -0.84375 L 5.90625 -7.046875 L 6.703125 -7.046875 L 3.875 0 L 3.046875 0 Z M 0.203125 -7.046875 "/></g></g></g><g fill="currentColor" fill-opacity="1"><g transform="translate(183.386453, 291.706651)"><g><path d="M 1.71875 0 L 0.984375 0 L 0.984375 -7.046875 L 1.71875 -7.046875 Z M 1.71875 0 "/></g></g></g><g fill="currentColor" fill-opacity="1"><g transform="translate(189.389468, 291.706651)"><g><path d="M 4 0.078125 C 3.507812 0.078125 3.050781 -0.00390625 2.625 -0.171875 C 2.207031 -0.347656 1.835938 -0.59375 1.515625 -0.90625 C 1.191406 -1.226562 0.9375 -1.609375 0.75 -2.046875 C 0.570312 -2.484375 0.484375 -2.96875 0.484375 -3.5 C 0.484375 -4.03125 0.578125 -4.519531 0.765625 -4.96875 C 0.953125 -5.414062 1.207031 -5.796875 1.53125 -6.109375 C 1.863281 -6.429688 2.242188 -6.679688 2.671875 -6.859375 C 3.097656 -7.035156 3.550781 -7.125 4.03125 -7.125 C 4.601562 -7.125 5.101562 -7.015625 5.53125 -6.796875 C 5.96875 -6.585938 6.320312 -6.316406 6.59375 -5.984375 C 6.875 -5.660156 7.066406 -5.316406 7.171875 -4.953125 L 6.5 -4.65625 C 6.40625 -4.9375 6.253906 -5.210938 6.046875 -5.484375 C 5.847656 -5.753906 5.582031 -5.976562 5.25 -6.15625 C 4.914062 -6.332031 4.503906 -6.421875 4.015625 -6.421875 C 3.640625 -6.421875 3.285156 -6.347656 2.953125 -6.203125 C 2.617188 -6.066406 2.320312 -5.867188 2.0625 -5.609375 C 1.8125 -5.359375 1.613281 -5.054688 1.46875 -4.703125 C 1.332031 -4.359375 1.265625 -3.972656 1.265625 -3.546875 C 1.265625 -2.984375 1.382812 -2.484375 1.625 -2.046875 C 1.863281 -1.609375 2.191406 -1.257812 2.609375 -1 C 3.023438 -0.75 3.492188 -0.625 4.015625 -0.625 C 4.671875 -0.625 5.203125 -0.789062 5.609375 -1.125 C 6.023438 -1.457031 6.328125 -1.882812 6.515625 -2.40625 L 7.1875 -2.09375 C 7.0625 -1.738281 6.859375 -1.394531 6.578125 -1.0625 C 6.296875 -0.726562 5.9375 -0.453125 5.5 -0.234375 C 5.070312 -0.0234375 4.570312 0.078125 4 0.078125 Z M 4 0.078125 "/></g></g></g><g fill="currentColor" fill-opacity="1"><g transform="translate(200.225517, 291.706651)"><g><path d="M 5.390625 -6.359375 L 1.71875 -6.359375 L 1.71875 -3.921875 L 5.078125 -3.921875 L 5.078125 -3.234375 L 1.71875 -3.234375 L 1.71875 -0.6875 L 5.421875 -0.6875 L 5.421875 0 L 0.984375 0 L 0.984375 -7.046875 L 5.390625 -7.046875 Z M 5.390625 -6.359375 "/></g></g></g><g fill="currentColor" fill-opacity="1"><g transform="translate(209.504564, 291.706651)"><g><path d="M 6.71875 0 L 5.9375 0 L 1.703125 -6 L 1.703125 0 L 0.984375 0 L 0.984375 -7.046875 L 1.84375 -7.046875 L 6 -1.15625 L 6 -7.046875 L 6.71875 -7.046875 Z M 6.71875 0 "/></g></g></g><g fill="currentColor" fill-opacity="1"><g transform="translate(220.511622, 291.706651)"><g><path d="M 4 0.078125 C 3.507812 0.078125 3.050781 -0.00390625 2.625 -0.171875 C 2.207031 -0.347656 1.835938 -0.59375 1.515625 -0.90625 C 1.191406 -1.226562 0.9375 -1.609375 0.75 -2.046875 C 0.570312 -2.484375 0.484375 -2.96875 0.484375 -3.5 C 0.484375 -4.03125 0.578125 -4.519531 0.765625 -4.96875 C 0.953125 -5.414062 1.207031 -5.796875 1.53125 -6.109375 C 1.863281 -6.429688 2.242188 -6.679688 2.671875 -6.859375 C 3.097656 -7.035156 3.550781 -7.125 4.03125 -7.125 C 4.601562 -7.125 5.101562 -7.015625 5.53125 -6.796875 C 5.96875 -6.585938 6.320312 -6.316406 6.59375 -5.984375 C 6.875 -5.660156 7.066406 -5.316406 7.171875 -4.953125 L 6.5 -4.65625 C 6.40625 -4.9375 6.253906 -5.210938 6.046875 -5.484375 C 5.847656 -5.753906 5.582031 -5.976562 5.25 -6.15625 C 4.914062 -6.332031 4.503906 -6.421875 4.015625 -6.421875 C 3.640625 -6.421875 3.285156 -6.347656 2.953125 -6.203125 C 2.617188 -6.066406 2.320312 -5.867188 2.0625 -5.609375 C 1.8125 -5.359375 1.613281 -5.054688 1.46875 -4.703125 C 1.332031 -4.359375 1.265625 -3.972656 1.265625 -3.546875 C 1.265625 -2.984375 1.382812 -2.484375 1.625 -2.046875 C 1.863281 -1.609375 2.191406 -1.257812 2.609375 -1 C 3.023438 -0.75 3.492188 -0.625 4.015625 -0.625 C 4.671875 -0.625 5.203125 -0.789062 5.609375 -1.125 C 6.023438 -1.457031 6.328125 -1.882812 6.515625 -2.40625 L 7.1875 -2.09375 C 7.0625 -1.738281 6.859375 -1.394531 6.578125 -1.0625 C 6.296875 -0.726562 5.9375 -0.453125 5.5 -0.234375 C 5.070312 -0.0234375 4.570312 0.078125 4 0.078125 Z M 4 0.078125 "/></g></g></g><g fill="currentColor" fill-opacity="1"><g transform="translate(231.347666, 291.706651)"><g><path d="M 1.71875 0 L 0.984375 0 L 0.984375 -7.046875 L 1.71875 -7.046875 Z M 1.71875 0 "/></g></g></g><g fill="currentColor" fill-opacity="1"><g transform="translate(237.350686, 291.706651)"><g><path d="M 7.5625 -3.546875 C 7.5625 -3.046875 7.472656 -2.570312 7.296875 -2.125 C 7.117188 -1.6875 6.867188 -1.300781 6.546875 -0.96875 C 6.234375 -0.644531 5.859375 -0.390625 5.421875 -0.203125 C 4.992188 -0.015625 4.523438 0.078125 4.015625 0.078125 C 3.515625 0.078125 3.046875 -0.015625 2.609375 -0.203125 C 2.179688 -0.390625 1.804688 -0.644531 1.484375 -0.96875 C 1.171875 -1.289062 0.925781 -1.664062 0.75 -2.09375 C 0.570312 -2.53125 0.484375 -3 0.484375 -3.5 C 0.484375 -4 0.570312 -4.46875 0.75 -4.90625 C 0.925781 -5.351562 1.175781 -5.738281 1.5 -6.0625 C 1.820312 -6.394531 2.195312 -6.65625 2.625 -6.84375 C 3.0625 -7.03125 3.535156 -7.125 4.046875 -7.125 C 4.546875 -7.125 5.007812 -7.03125 5.4375 -6.84375 C 5.863281 -6.65625 6.234375 -6.398438 6.546875 -6.078125 C 6.867188 -5.753906 7.117188 -5.375 7.296875 -4.9375 C 7.472656 -4.507812 7.5625 -4.046875 7.5625 -3.546875 Z M 6.796875 -3.5 C 6.796875 -3.894531 6.726562 -4.265625 6.59375 -4.609375 C 6.46875 -4.960938 6.28125 -5.273438 6.03125 -5.546875 C 5.78125 -5.828125 5.484375 -6.039062 5.140625 -6.1875 C 4.796875 -6.34375 4.421875 -6.421875 4.015625 -6.421875 C 3.609375 -6.421875 3.234375 -6.34375 2.890625 -6.1875 C 2.554688 -6.039062 2.265625 -5.832031 2.015625 -5.5625 C 1.773438 -5.300781 1.585938 -5 1.453125 -4.65625 C 1.316406 -4.3125 1.25 -3.941406 1.25 -3.546875 C 1.25 -3.148438 1.316406 -2.773438 1.453125 -2.421875 C 1.585938 -2.066406 1.78125 -1.753906 2.03125 -1.484375 C 2.28125 -1.210938 2.570312 -1 2.90625 -0.84375 C 3.25 -0.695312 3.628906 -0.625 4.046875 -0.625 C 4.453125 -0.625 4.820312 -0.695312 5.15625 -0.84375 C 5.488281 -1 5.78125 -1.207031 6.03125 -1.46875 C 6.28125 -1.738281 6.46875 -2.046875 6.59375 -2.390625 C 6.726562 -2.734375 6.796875 -3.101562 6.796875 -3.5 Z M 6.796875 -3.5 "/></g></g></g></svg>